<?xml version="1.0" encoding="utf-8"?>
<!-- Generator: Adobe Illustrator 16.0.0, SVG Export Plug-In . SVG Version: 6.00 Build 0)  -->
<!DOCTYPE svg PUBLIC "-//W3C//DTD SVG 1.1//EN" "http://www.w3.org/Graphics/SVG/1.1/DTD/svg11.dtd">
<svg version="1.1" id="Layer_1" xmlns="http://www.w3.org/2000/svg" xmlns:xlink="http://www.w3.org/1999/xlink" x="0px" y="0px"
	 width="118px" height="34px" viewBox="0 0 118 34" enable-background="new 0 0 118 34" xml:space="preserve">
<title>Sided Logo / Black Logotype Copy</title>
<path fill="#FFFFFF" d="M113.313,28.725h0.515c0.524,0,0.753-0.203,0.753-0.656c0-0.441-0.217-0.635-0.696-0.635h-0.571V28.725z
	 M114.066,26.768c0.479,0,0.766,0.056,1.017,0.203c0.388,0.215,0.593,0.576,0.593,1.019c0,0.475-0.25,0.837-0.719,1.052
	c0.492,0.204,0.628,0.486,0.65,1.414c0.023,0.306,0.058,0.52,0.115,0.656h-1.051c-0.057-0.102-0.08-0.26-0.104-0.565
	c-0.045-0.95-0.193-1.144-0.832-1.188h-0.424v1.754h-1.107v-4.344H114.066z M110.789,28.984c0,1.721,1.393,3.135,3.084,3.135
	c1.701,0,3.083-1.403,3.083-3.135c0-1.719-1.382-3.146-3.038-3.146C112.171,25.839,110.788,27.219,110.789,28.984L110.789,28.984z
	 M117.824,28.984c0,2.16-1.77,3.927-3.94,3.927c-2.181,0-3.963-1.765-3.963-3.927c0-2.207,1.771-3.938,4.009-3.938
	C116.064,25.047,117.824,26.835,117.824,28.984z M21.366,32.219h7.16v-21.61h-7.16V32.219z M28.76,4.355
	c0,2.146-1.649,3.734-3.815,3.734c-2.215,0-3.816-1.588-3.816-3.781s1.601-3.781,3.864-3.781C27.207,0.527,28.761,2.115,28.76,4.355
	L28.76,4.355z M37.807,21.671c0,3.267,2.308,5.788,5.323,5.788c2.92,0,5.182-2.521,5.182-5.788c0-3.454-2.213-6.021-5.182-6.021
	C40.069,15.65,37.807,18.217,37.807,21.671z M48.312,1.087h7.16v31.134h-7.16v-2.428c-0.99,1.354-1.555,1.867-2.544,2.334
	c-1.272,0.605-2.778,0.934-4.521,0.934c-6.643,0-11.07-4.527-11.07-11.389c0-3.734,1.177-6.675,3.58-8.87
	c2.166-1.912,4.898-3.032,7.63-3.032c2.827,0,4.852,0.84,6.925,2.8V1.087z M73.33,19.15c-0.473-2.24-2.169-3.5-4.712-3.5
	c-2.45,0-4.099,1.26-4.57,3.5H73.33L73.33,19.15z M64.096,22.932c0.519,2.426,2.403,3.873,4.993,3.873
	c1.933,0,3.534-0.84,4.287-2.38l6.595,1.681c-1.084,2.146-1.884,3.127-3.533,4.387c-2.213,1.727-4.662,2.566-7.489,2.566
	c-7.113,0-12.248-4.899-12.248-11.762c0-6.861,4.805-11.528,11.87-11.528c7.207,0,12.061,4.9,12.061,12.275v0.888H64.096
	L64.096,22.932z M88.971,21.671c0,3.267,2.309,5.788,5.323,5.788c2.921,0,5.183-2.521,5.183-5.788c0-3.454-2.215-6.021-5.183-6.021
	C91.232,15.65,88.971,18.217,88.971,21.671z M99.477,1.087h7.159v31.134h-7.159v-2.428c-0.99,1.354-1.555,1.867-2.543,2.334
	c-1.272,0.605-2.781,0.934-4.523,0.934c-6.643,0-11.07-4.527-11.07-11.389c0-3.734,1.178-6.675,3.58-8.87
	c2.166-1.912,4.898-3.032,7.632-3.032c2.826,0,4.851,0.84,6.925,2.8V1.087z M12.316,17.005v-0.42c0-0.98-1.08-1.727-2.93-1.727
	c-1.654,0-2.412,0.607-2.412,1.447c0,1.05,1.351,1.745,3.189,2.259c6.124,1.727,9.22,3.39,9.22,7.17
	c0,4.389-4.391,7.328-9.715,7.328S0.141,30.311,0,25.781h6.784c0.283,1.587,0.948,2.193,2.884,2.193
	c1.567,0,2.364-0.652,2.364-1.539c0-1.094-2.28-1.838-5.2-2.771C2.072,22.17,0,20.32,0,16.911C0,12.617,4.39,9.77,9.668,9.77
	c5.182,0,9.244,2.707,9.291,7.235H12.316L12.316,17.005z"/>
</svg>
